<mxfile host="Electron" agent="Mozilla/5.0 (Windows NT 10.0; Win64; x64) AppleWebKit/537.36 (KHTML, like Gecko) draw.io/27.0.9 Chrome/134.0.6998.205 Electron/35.4.0 Safari/537.36" version="27.0.9">
  <diagram name="PÃ¡gina-1" id="8GxgJYH82TcZlUL52siy">
    <mxGraphModel dx="3691" dy="3549" grid="1" gridSize="10" guides="1" tooltips="1" connect="1" arrows="1" fold="1" page="1" pageScale="1" pageWidth="1654" pageHeight="2336" math="0" shadow="0">
      <root>
        <mxCell id="0" />
        <mxCell id="1" parent="0" />
        <mxCell id="21IDbUfAC1Eb4WapRIbQ-1" value="FUNCIONARIO" style="rounded=0;whiteSpace=wrap;html=1;" parent="1" vertex="1">
          <mxGeometry x="-2" y="-190" width="120" height="40" as="geometry" />
        </mxCell>
        <mxCell id="21IDbUfAC1Eb4WapRIbQ-10" value="" style="endArrow=oval;html=1;rounded=0;endFill=1;" parent="1" edge="1">
          <mxGeometry width="50" height="50" relative="1" as="geometry">
            <mxPoint x="-2" y="-118.5" as="sourcePoint" />
            <mxPoint x="81" y="-118.5" as="targetPoint" />
          </mxGeometry>
        </mxCell>
        <mxCell id="21IDbUfAC1Eb4WapRIbQ-11" value="CPF (PK)" style="text;html=1;align=left;verticalAlign=middle;whiteSpace=wrap;rounded=0;" parent="1" vertex="1">
          <mxGeometry x="98" y="-130" width="100" height="30" as="geometry" />
        </mxCell>
        <mxCell id="21IDbUfAC1Eb4WapRIbQ-12" value="nome" style="text;html=1;align=left;verticalAlign=middle;whiteSpace=wrap;rounded=0;" parent="1" vertex="1">
          <mxGeometry x="98" y="-100" width="100" height="30" as="geometry" />
        </mxCell>
        <mxCell id="21IDbUfAC1Eb4WapRIbQ-13" value="telefone" style="text;html=1;align=left;verticalAlign=middle;whiteSpace=wrap;rounded=0;" parent="1" vertex="1">
          <mxGeometry x="98" y="-70" width="100" height="30" as="geometry" />
        </mxCell>
        <mxCell id="21IDbUfAC1Eb4WapRIbQ-14" value="email" style="text;html=1;align=left;verticalAlign=middle;whiteSpace=wrap;rounded=0;" parent="1" vertex="1">
          <mxGeometry x="98" y="-40" width="100" height="30" as="geometry" />
        </mxCell>
        <mxCell id="21IDbUfAC1Eb4WapRIbQ-15" value="idReserva (PK)" style="text;html=1;align=left;verticalAlign=middle;whiteSpace=wrap;rounded=0;" parent="1" vertex="1">
          <mxGeometry x="1138" y="-130" width="150" height="30" as="geometry" />
        </mxCell>
        <mxCell id="21IDbUfAC1Eb4WapRIbQ-16" value="data de entrada" style="text;html=1;align=left;verticalAlign=middle;whiteSpace=wrap;rounded=0;" parent="1" vertex="1">
          <mxGeometry x="1138" y="-100" width="100" height="30" as="geometry" />
        </mxCell>
        <mxCell id="21IDbUfAC1Eb4WapRIbQ-18" value="" style="endArrow=oval;html=1;rounded=0;endFill=0;" parent="1" edge="1">
          <mxGeometry width="50" height="50" relative="1" as="geometry">
            <mxPoint x="-2" y="-88.5" as="sourcePoint" />
            <mxPoint x="81" y="-88.5" as="targetPoint" />
          </mxGeometry>
        </mxCell>
        <mxCell id="21IDbUfAC1Eb4WapRIbQ-20" value="" style="endArrow=oval;html=1;rounded=0;endFill=0;" parent="1" edge="1">
          <mxGeometry width="50" height="50" relative="1" as="geometry">
            <mxPoint x="-2" y="-60" as="sourcePoint" />
            <mxPoint x="81" y="-60" as="targetPoint" />
          </mxGeometry>
        </mxCell>
        <mxCell id="21IDbUfAC1Eb4WapRIbQ-21" value="" style="endArrow=oval;html=1;rounded=0;endFill=0;" parent="1" edge="1">
          <mxGeometry width="50" height="50" relative="1" as="geometry">
            <mxPoint x="-2" y="-30" as="sourcePoint" />
            <mxPoint x="81" y="-30" as="targetPoint" />
          </mxGeometry>
        </mxCell>
        <mxCell id="21IDbUfAC1Eb4WapRIbQ-22" value="" style="endArrow=none;html=1;rounded=0;entryX=0;entryY=1;entryDx=0;entryDy=0;" parent="1" edge="1" target="21IDbUfAC1Eb4WapRIbQ-1">
          <mxGeometry width="50" height="50" relative="1" as="geometry">
            <mxPoint x="-2" y="60" as="sourcePoint" />
            <mxPoint x="-3" y="-105" as="targetPoint" />
          </mxGeometry>
        </mxCell>
        <mxCell id="bDWwW6XErZoGAaxyNKPI-1" value="" style="endArrow=oval;html=1;rounded=0;endFill=0;" parent="1" edge="1">
          <mxGeometry width="50" height="50" relative="1" as="geometry">
            <mxPoint x="-2" as="sourcePoint" />
            <mxPoint x="81" as="targetPoint" />
          </mxGeometry>
        </mxCell>
        <mxCell id="bDWwW6XErZoGAaxyNKPI-2" value="" style="endArrow=oval;html=1;rounded=0;endFill=0;" parent="1" edge="1">
          <mxGeometry width="50" height="50" relative="1" as="geometry">
            <mxPoint x="-2" y="30" as="sourcePoint" />
            <mxPoint x="81" y="30" as="targetPoint" />
          </mxGeometry>
        </mxCell>
        <mxCell id="bDWwW6XErZoGAaxyNKPI-4" value="login" style="text;html=1;align=center;verticalAlign=middle;whiteSpace=wrap;rounded=0;" parent="1" vertex="1">
          <mxGeometry x="68" y="-10" width="90" height="20" as="geometry" />
        </mxCell>
        <mxCell id="bDWwW6XErZoGAaxyNKPI-6" value="senha" style="text;html=1;align=center;verticalAlign=middle;whiteSpace=wrap;rounded=0;" parent="1" vertex="1">
          <mxGeometry x="68" y="20" width="90" height="20" as="geometry" />
        </mxCell>
        <mxCell id="bDWwW6XErZoGAaxyNKPI-12" value="" style="endArrow=oval;html=1;rounded=0;endFill=1;" parent="1" edge="1">
          <mxGeometry width="50" height="50" relative="1" as="geometry">
            <mxPoint x="-2" y="-118.5" as="sourcePoint" />
            <mxPoint x="81" y="-118.5" as="targetPoint" />
          </mxGeometry>
        </mxCell>
        <mxCell id="bDWwW6XErZoGAaxyNKPI-17" value="HOTEL" style="rounded=0;whiteSpace=wrap;html=1;" parent="1" vertex="1">
          <mxGeometry x="-2" y="-550" width="120" height="40" as="geometry" />
        </mxCell>
        <mxCell id="bDWwW6XErZoGAaxyNKPI-18" value="" style="endArrow=oval;html=1;rounded=0;endFill=1;" parent="1" edge="1">
          <mxGeometry width="50" height="50" relative="1" as="geometry">
            <mxPoint x="-2" y="-728.5" as="sourcePoint" />
            <mxPoint x="81" y="-728.5" as="targetPoint" />
          </mxGeometry>
        </mxCell>
        <mxCell id="bDWwW6XErZoGAaxyNKPI-19" value="" style="endArrow=oval;html=1;rounded=0;endFill=0;" parent="1" edge="1">
          <mxGeometry width="50" height="50" relative="1" as="geometry">
            <mxPoint x="-2" y="-698.5" as="sourcePoint" />
            <mxPoint x="81" y="-698.5" as="targetPoint" />
          </mxGeometry>
        </mxCell>
        <mxCell id="bDWwW6XErZoGAaxyNKPI-20" value="" style="endArrow=oval;html=1;rounded=0;endFill=0;" parent="1" edge="1">
          <mxGeometry width="50" height="50" relative="1" as="geometry">
            <mxPoint x="-2" y="-670" as="sourcePoint" />
            <mxPoint x="81" y="-670" as="targetPoint" />
          </mxGeometry>
        </mxCell>
        <mxCell id="bDWwW6XErZoGAaxyNKPI-21" value="" style="endArrow=oval;html=1;rounded=0;endFill=0;" parent="1" edge="1">
          <mxGeometry width="50" height="50" relative="1" as="geometry">
            <mxPoint x="-2" y="-640" as="sourcePoint" />
            <mxPoint x="81" y="-640" as="targetPoint" />
          </mxGeometry>
        </mxCell>
        <mxCell id="bDWwW6XErZoGAaxyNKPI-22" value="" style="endArrow=none;html=1;rounded=0;exitX=0;exitY=0;exitDx=0;exitDy=0;" parent="1" source="bDWwW6XErZoGAaxyNKPI-17" edge="1">
          <mxGeometry width="50" height="50" relative="1" as="geometry">
            <mxPoint x="-2" y="-563" as="sourcePoint" />
            <mxPoint x="-2" y="-730" as="targetPoint" />
          </mxGeometry>
        </mxCell>
        <mxCell id="bDWwW6XErZoGAaxyNKPI-23" value="" style="endArrow=oval;html=1;rounded=0;endFill=0;" parent="1" edge="1">
          <mxGeometry width="50" height="50" relative="1" as="geometry">
            <mxPoint x="-2" y="-610" as="sourcePoint" />
            <mxPoint x="81" y="-610" as="targetPoint" />
          </mxGeometry>
        </mxCell>
        <mxCell id="bDWwW6XErZoGAaxyNKPI-24" value="" style="endArrow=oval;html=1;rounded=0;endFill=0;" parent="1" edge="1">
          <mxGeometry width="50" height="50" relative="1" as="geometry">
            <mxPoint x="-2" y="-580" as="sourcePoint" />
            <mxPoint x="81" y="-580" as="targetPoint" />
          </mxGeometry>
        </mxCell>
        <mxCell id="bDWwW6XErZoGAaxyNKPI-27" value="" style="endArrow=oval;html=1;rounded=0;endFill=1;" parent="1" edge="1">
          <mxGeometry width="50" height="50" relative="1" as="geometry">
            <mxPoint x="-2" y="-728.5" as="sourcePoint" />
            <mxPoint x="81" y="-728.5" as="targetPoint" />
          </mxGeometry>
        </mxCell>
        <mxCell id="bDWwW6XErZoGAaxyNKPI-39" value="idHotel (PK)" style="text;html=1;align=center;verticalAlign=middle;whiteSpace=wrap;rounded=0;" parent="1" vertex="1">
          <mxGeometry x="58" y="-740" width="150" height="30" as="geometry" />
        </mxCell>
        <mxCell id="bDWwW6XErZoGAaxyNKPI-40" value="nome" style="text;html=1;align=center;verticalAlign=middle;whiteSpace=wrap;rounded=0;" parent="1" vertex="1">
          <mxGeometry x="64" y="-710" width="100" height="30" as="geometry" />
        </mxCell>
        <mxCell id="bDWwW6XErZoGAaxyNKPI-41" value="categoria" style="text;html=1;align=center;verticalAlign=middle;whiteSpace=wrap;rounded=0;" parent="1" vertex="1">
          <mxGeometry x="75" y="-680" width="100" height="30" as="geometry" />
        </mxCell>
        <mxCell id="bDWwW6XErZoGAaxyNKPI-42" value="telefone" style="text;html=1;align=center;verticalAlign=middle;whiteSpace=wrap;rounded=0;" parent="1" vertex="1">
          <mxGeometry x="72" y="-650" width="100" height="30" as="geometry" />
        </mxCell>
        <mxCell id="bDWwW6XErZoGAaxyNKPI-43" value="email" style="text;html=1;align=center;verticalAlign=middle;whiteSpace=wrap;rounded=0;" parent="1" vertex="1">
          <mxGeometry x="64" y="-620" width="100" height="30" as="geometry" />
        </mxCell>
        <mxCell id="bDWwW6XErZoGAaxyNKPI-44" value="endereco" style="text;html=1;align=center;verticalAlign=middle;whiteSpace=wrap;rounded=0;" parent="1" vertex="1">
          <mxGeometry x="64" y="-595" width="106" height="30" as="geometry" />
        </mxCell>
        <mxCell id="bDWwW6XErZoGAaxyNKPI-45" value="QUARTO" style="rounded=0;whiteSpace=wrap;html=1;" parent="1" vertex="1">
          <mxGeometry x="900" y="-540" width="120" height="40" as="geometry" />
        </mxCell>
        <mxCell id="bDWwW6XErZoGAaxyNKPI-46" value="" style="endArrow=oval;html=1;rounded=0;endFill=1;" parent="1" edge="1">
          <mxGeometry width="50" height="50" relative="1" as="geometry">
            <mxPoint x="898" y="-738.5" as="sourcePoint" />
            <mxPoint x="981" y="-738.5" as="targetPoint" />
          </mxGeometry>
        </mxCell>
        <mxCell id="bDWwW6XErZoGAaxyNKPI-47" value="" style="endArrow=oval;html=1;rounded=0;endFill=0;" parent="1" edge="1">
          <mxGeometry width="50" height="50" relative="1" as="geometry">
            <mxPoint x="898" y="-708.5" as="sourcePoint" />
            <mxPoint x="981" y="-708.5" as="targetPoint" />
          </mxGeometry>
        </mxCell>
        <mxCell id="bDWwW6XErZoGAaxyNKPI-48" value="" style="endArrow=oval;html=1;rounded=0;endFill=0;" parent="1" edge="1">
          <mxGeometry width="50" height="50" relative="1" as="geometry">
            <mxPoint x="898" y="-680" as="sourcePoint" />
            <mxPoint x="981" y="-680" as="targetPoint" />
          </mxGeometry>
        </mxCell>
        <mxCell id="bDWwW6XErZoGAaxyNKPI-49" value="" style="endArrow=oval;html=1;rounded=0;endFill=0;" parent="1" edge="1">
          <mxGeometry width="50" height="50" relative="1" as="geometry">
            <mxPoint x="898" y="-650" as="sourcePoint" />
            <mxPoint x="981" y="-650" as="targetPoint" />
          </mxGeometry>
        </mxCell>
        <mxCell id="bDWwW6XErZoGAaxyNKPI-50" value="" style="endArrow=none;html=1;rounded=0;exitX=0;exitY=0;exitDx=0;exitDy=0;" parent="1" source="bDWwW6XErZoGAaxyNKPI-45" edge="1">
          <mxGeometry width="50" height="50" relative="1" as="geometry">
            <mxPoint x="898" y="-580" as="sourcePoint" />
            <mxPoint x="898" y="-740" as="targetPoint" />
          </mxGeometry>
        </mxCell>
        <mxCell id="bDWwW6XErZoGAaxyNKPI-51" value="" style="endArrow=oval;html=1;rounded=0;endFill=0;" parent="1" edge="1">
          <mxGeometry width="50" height="50" relative="1" as="geometry">
            <mxPoint x="898" y="-620" as="sourcePoint" />
            <mxPoint x="981" y="-620" as="targetPoint" />
          </mxGeometry>
        </mxCell>
        <mxCell id="bDWwW6XErZoGAaxyNKPI-53" value="" style="endArrow=oval;html=1;rounded=0;endFill=1;" parent="1" edge="1">
          <mxGeometry width="50" height="50" relative="1" as="geometry">
            <mxPoint x="898" y="-738.5" as="sourcePoint" />
            <mxPoint x="981" y="-738.5" as="targetPoint" />
          </mxGeometry>
        </mxCell>
        <mxCell id="bDWwW6XErZoGAaxyNKPI-54" value="idQuarto (PK)" style="text;html=1;align=center;verticalAlign=middle;whiteSpace=wrap;rounded=0;" parent="1" vertex="1">
          <mxGeometry x="958" y="-750" width="150" height="30" as="geometry" />
        </mxCell>
        <mxCell id="bDWwW6XErZoGAaxyNKPI-55" value="numero de leitos" style="text;html=1;align=center;verticalAlign=middle;whiteSpace=wrap;rounded=0;" parent="1" vertex="1">
          <mxGeometry x="988" y="-720" width="126.5" height="30" as="geometry" />
        </mxCell>
        <mxCell id="bDWwW6XErZoGAaxyNKPI-56" value="tipo (standard, luxo ou suite)" style="text;html=1;align=center;verticalAlign=middle;whiteSpace=wrap;rounded=0;" parent="1" vertex="1">
          <mxGeometry x="968" y="-690" width="222" height="30" as="geometry" />
        </mxCell>
        <mxCell id="bDWwW6XErZoGAaxyNKPI-57" value="preco de diaria" style="text;html=1;align=center;verticalAlign=middle;whiteSpace=wrap;rounded=0;" parent="1" vertex="1">
          <mxGeometry x="998" y="-660" width="100" height="30" as="geometry" />
        </mxCell>
        <mxCell id="bDWwW6XErZoGAaxyNKPI-58" value="status (disponivel, ocupado ou manutencao)" style="text;html=1;align=center;verticalAlign=middle;whiteSpace=wrap;rounded=0;" parent="1" vertex="1">
          <mxGeometry x="974" y="-630" width="276" height="30" as="geometry" />
        </mxCell>
        <mxCell id="bDWwW6XErZoGAaxyNKPI-60" value="HOSPEDE" style="rounded=0;whiteSpace=wrap;html=1;" parent="1" vertex="1">
          <mxGeometry x="918" y="230" width="120" height="40" as="geometry" />
        </mxCell>
        <mxCell id="bDWwW6XErZoGAaxyNKPI-61" value="" style="endArrow=oval;html=1;rounded=0;endFill=1;" parent="1" edge="1">
          <mxGeometry width="50" height="50" relative="1" as="geometry">
            <mxPoint x="918" y="301.5" as="sourcePoint" />
            <mxPoint x="1001" y="301.5" as="targetPoint" />
          </mxGeometry>
        </mxCell>
        <mxCell id="bDWwW6XErZoGAaxyNKPI-62" value="" style="endArrow=oval;html=1;rounded=0;endFill=0;" parent="1" edge="1">
          <mxGeometry width="50" height="50" relative="1" as="geometry">
            <mxPoint x="918" y="331.5" as="sourcePoint" />
            <mxPoint x="1001" y="331.5" as="targetPoint" />
          </mxGeometry>
        </mxCell>
        <mxCell id="bDWwW6XErZoGAaxyNKPI-63" value="" style="endArrow=oval;html=1;rounded=0;endFill=0;" parent="1" edge="1">
          <mxGeometry width="50" height="50" relative="1" as="geometry">
            <mxPoint x="918" y="360" as="sourcePoint" />
            <mxPoint x="1001" y="360" as="targetPoint" />
          </mxGeometry>
        </mxCell>
        <mxCell id="bDWwW6XErZoGAaxyNKPI-64" value="" style="endArrow=oval;html=1;rounded=0;endFill=0;" parent="1" edge="1">
          <mxGeometry width="50" height="50" relative="1" as="geometry">
            <mxPoint x="918" y="390" as="sourcePoint" />
            <mxPoint x="1001" y="390" as="targetPoint" />
          </mxGeometry>
        </mxCell>
        <mxCell id="bDWwW6XErZoGAaxyNKPI-65" value="" style="endArrow=none;html=1;rounded=0;entryX=0;entryY=1;entryDx=0;entryDy=0;" parent="1" edge="1" target="bDWwW6XErZoGAaxyNKPI-60">
          <mxGeometry width="50" height="50" relative="1" as="geometry">
            <mxPoint x="918.5" y="420" as="sourcePoint" />
            <mxPoint x="918" y="290" as="targetPoint" />
          </mxGeometry>
        </mxCell>
        <mxCell id="bDWwW6XErZoGAaxyNKPI-66" value="" style="endArrow=oval;html=1;rounded=0;endFill=0;" parent="1" edge="1">
          <mxGeometry width="50" height="50" relative="1" as="geometry">
            <mxPoint x="918" y="420" as="sourcePoint" />
            <mxPoint x="1001" y="420" as="targetPoint" />
          </mxGeometry>
        </mxCell>
        <mxCell id="bDWwW6XErZoGAaxyNKPI-67" value="" style="endArrow=oval;html=1;rounded=0;endFill=1;" parent="1" edge="1">
          <mxGeometry width="50" height="50" relative="1" as="geometry">
            <mxPoint x="918" y="301.5" as="sourcePoint" />
            <mxPoint x="1001" y="301.5" as="targetPoint" />
          </mxGeometry>
        </mxCell>
        <mxCell id="bDWwW6XErZoGAaxyNKPI-68" value="CPF (PK)" style="text;html=1;align=center;verticalAlign=middle;whiteSpace=wrap;rounded=0;" parent="1" vertex="1">
          <mxGeometry x="988" y="290" width="126.5" height="30" as="geometry" />
        </mxCell>
        <mxCell id="bDWwW6XErZoGAaxyNKPI-69" value="nome" style="text;html=1;align=center;verticalAlign=middle;whiteSpace=wrap;rounded=0;" parent="1" vertex="1">
          <mxGeometry x="998" y="320" width="96" height="30" as="geometry" />
        </mxCell>
        <mxCell id="bDWwW6XErZoGAaxyNKPI-70" value="telefone" style="text;html=1;align=center;verticalAlign=middle;whiteSpace=wrap;rounded=0;" parent="1" vertex="1">
          <mxGeometry x="1004.75" y="350" width="100" height="30" as="geometry" />
        </mxCell>
        <mxCell id="bDWwW6XErZoGAaxyNKPI-71" value="email" style="text;html=1;align=center;verticalAlign=middle;whiteSpace=wrap;rounded=0;" parent="1" vertex="1">
          <mxGeometry x="996" y="380" width="100" height="30" as="geometry" />
        </mxCell>
        <mxCell id="bDWwW6XErZoGAaxyNKPI-73" value="endereco" style="text;html=1;align=center;verticalAlign=middle;whiteSpace=wrap;rounded=0;" parent="1" vertex="1">
          <mxGeometry x="998" y="410" width="100" height="30" as="geometry" />
        </mxCell>
        <mxCell id="bDWwW6XErZoGAaxyNKPI-74" value="RESERVA" style="rounded=0;whiteSpace=wrap;html=1;" parent="1" vertex="1">
          <mxGeometry x="918" y="-190" width="120" height="40" as="geometry" />
        </mxCell>
        <mxCell id="bDWwW6XErZoGAaxyNKPI-75" value="" style="endArrow=oval;html=1;rounded=0;endFill=1;" parent="1" edge="1">
          <mxGeometry width="50" height="50" relative="1" as="geometry">
            <mxPoint x="1038" y="-118.5" as="sourcePoint" />
            <mxPoint x="1121" y="-118.5" as="targetPoint" />
          </mxGeometry>
        </mxCell>
        <mxCell id="bDWwW6XErZoGAaxyNKPI-76" value="" style="endArrow=oval;html=1;rounded=0;endFill=0;" parent="1" edge="1">
          <mxGeometry width="50" height="50" relative="1" as="geometry">
            <mxPoint x="1038" y="-88.5" as="sourcePoint" />
            <mxPoint x="1121" y="-88.5" as="targetPoint" />
          </mxGeometry>
        </mxCell>
        <mxCell id="bDWwW6XErZoGAaxyNKPI-77" value="" style="endArrow=oval;html=1;rounded=0;endFill=0;" parent="1" edge="1">
          <mxGeometry width="50" height="50" relative="1" as="geometry">
            <mxPoint x="1038" y="-60" as="sourcePoint" />
            <mxPoint x="1121" y="-60" as="targetPoint" />
          </mxGeometry>
        </mxCell>
        <mxCell id="bDWwW6XErZoGAaxyNKPI-78" value="" style="endArrow=oval;html=1;rounded=0;endFill=0;" parent="1" edge="1">
          <mxGeometry width="50" height="50" relative="1" as="geometry">
            <mxPoint x="1038" y="-30" as="sourcePoint" />
            <mxPoint x="1121" y="-30" as="targetPoint" />
          </mxGeometry>
        </mxCell>
        <mxCell id="bDWwW6XErZoGAaxyNKPI-79" value="" style="endArrow=none;html=1;rounded=0;entryX=1;entryY=0.75;entryDx=0;entryDy=0;" parent="1" edge="1" target="bDWwW6XErZoGAaxyNKPI-74">
          <mxGeometry width="50" height="50" relative="1" as="geometry">
            <mxPoint x="1038" y="30" as="sourcePoint" />
            <mxPoint x="1038" y="-145" as="targetPoint" />
          </mxGeometry>
        </mxCell>
        <mxCell id="bDWwW6XErZoGAaxyNKPI-81" value="" style="endArrow=oval;html=1;rounded=0;endFill=1;" parent="1" edge="1">
          <mxGeometry width="50" height="50" relative="1" as="geometry">
            <mxPoint x="1038" y="-118.5" as="sourcePoint" />
            <mxPoint x="1121" y="-118.5" as="targetPoint" />
          </mxGeometry>
        </mxCell>
        <mxCell id="bDWwW6XErZoGAaxyNKPI-86" value="data de saida" style="text;html=1;align=center;verticalAlign=middle;whiteSpace=wrap;rounded=0;" parent="1" vertex="1">
          <mxGeometry x="1128" y="-70" width="100" height="30" as="geometry" />
        </mxCell>
        <mxCell id="bDWwW6XErZoGAaxyNKPI-89" value="status (ativa, cancelada ou concluida)" style="text;html=1;align=center;verticalAlign=middle;whiteSpace=wrap;rounded=0;" parent="1" vertex="1">
          <mxGeometry x="1108" y="-40" width="252" height="30" as="geometry" />
        </mxCell>
        <mxCell id="bDWwW6XErZoGAaxyNKPI-90" value="PAGAMENTO" style="rounded=0;whiteSpace=wrap;html=1;" parent="1" vertex="1">
          <mxGeometry x="1410" y="-190" width="120" height="40" as="geometry" />
        </mxCell>
        <mxCell id="bDWwW6XErZoGAaxyNKPI-91" value="" style="endArrow=oval;html=1;rounded=0;endFill=1;" parent="1" edge="1">
          <mxGeometry width="50" height="50" relative="1" as="geometry">
            <mxPoint x="1410" y="-98.5" as="sourcePoint" />
            <mxPoint x="1493" y="-98.5" as="targetPoint" />
          </mxGeometry>
        </mxCell>
        <mxCell id="bDWwW6XErZoGAaxyNKPI-92" value="" style="endArrow=oval;html=1;rounded=0;endFill=0;" parent="1" edge="1">
          <mxGeometry width="50" height="50" relative="1" as="geometry">
            <mxPoint x="1410" y="-68.5" as="sourcePoint" />
            <mxPoint x="1493" y="-68.5" as="targetPoint" />
          </mxGeometry>
        </mxCell>
        <mxCell id="bDWwW6XErZoGAaxyNKPI-93" value="" style="endArrow=oval;html=1;rounded=0;endFill=0;" parent="1" edge="1">
          <mxGeometry width="50" height="50" relative="1" as="geometry">
            <mxPoint x="1410" y="-40" as="sourcePoint" />
            <mxPoint x="1493" y="-40" as="targetPoint" />
          </mxGeometry>
        </mxCell>
        <mxCell id="bDWwW6XErZoGAaxyNKPI-94" value="" style="endArrow=oval;html=1;rounded=0;endFill=0;" parent="1" edge="1">
          <mxGeometry width="50" height="50" relative="1" as="geometry">
            <mxPoint x="1410" y="-10" as="sourcePoint" />
            <mxPoint x="1493" y="-10" as="targetPoint" />
          </mxGeometry>
        </mxCell>
        <mxCell id="bDWwW6XErZoGAaxyNKPI-95" value="" style="endArrow=none;html=1;rounded=0;entryX=0;entryY=1;entryDx=0;entryDy=0;" parent="1" edge="1" target="bDWwW6XErZoGAaxyNKPI-90">
          <mxGeometry width="50" height="50" relative="1" as="geometry">
            <mxPoint x="1410" y="50" as="sourcePoint" />
            <mxPoint x="1410" y="-130" as="targetPoint" />
          </mxGeometry>
        </mxCell>
        <mxCell id="bDWwW6XErZoGAaxyNKPI-96" value="" style="endArrow=oval;html=1;rounded=0;endFill=0;" parent="1" edge="1">
          <mxGeometry width="50" height="50" relative="1" as="geometry">
            <mxPoint x="1410" y="20" as="sourcePoint" />
            <mxPoint x="1493" y="20" as="targetPoint" />
          </mxGeometry>
        </mxCell>
        <mxCell id="bDWwW6XErZoGAaxyNKPI-97" value="" style="endArrow=oval;html=1;rounded=0;endFill=1;" parent="1" edge="1">
          <mxGeometry width="50" height="50" relative="1" as="geometry">
            <mxPoint x="1410" y="-98.5" as="sourcePoint" />
            <mxPoint x="1493" y="-98.5" as="targetPoint" />
          </mxGeometry>
        </mxCell>
        <mxCell id="bDWwW6XErZoGAaxyNKPI-98" value="idPagamento (PK)" style="text;html=1;align=center;verticalAlign=middle;whiteSpace=wrap;rounded=0;" parent="1" vertex="1">
          <mxGeometry x="1480" y="-110" width="150" height="30" as="geometry" />
        </mxCell>
        <mxCell id="bDWwW6XErZoGAaxyNKPI-99" value="forma de pagamento (cartao, pix ou dinheiro)" style="text;html=1;align=center;verticalAlign=middle;whiteSpace=wrap;rounded=0;" parent="1" vertex="1">
          <mxGeometry x="1500" y="-80" width="260" height="30" as="geometry" />
        </mxCell>
        <mxCell id="bDWwW6XErZoGAaxyNKPI-100" value="data do pagamento" style="text;html=1;align=center;verticalAlign=middle;whiteSpace=wrap;rounded=0;" parent="1" vertex="1">
          <mxGeometry x="1480" y="-50" width="150" height="30" as="geometry" />
        </mxCell>
        <mxCell id="bDWwW6XErZoGAaxyNKPI-101" value="valor total" style="text;html=1;align=center;verticalAlign=middle;whiteSpace=wrap;rounded=0;" parent="1" vertex="1">
          <mxGeometry x="1480" y="-20" width="100" height="30" as="geometry" />
        </mxCell>
        <mxCell id="bDWwW6XErZoGAaxyNKPI-102" value="status (pago ou pendente)" style="text;html=1;align=center;verticalAlign=middle;whiteSpace=wrap;rounded=0;" parent="1" vertex="1">
          <mxGeometry x="1470" y="10" width="220" height="30" as="geometry" />
        </mxCell>
        <mxCell id="bDWwW6XErZoGAaxyNKPI-107" value="" style="endArrow=oval;html=1;rounded=0;endFill=0;" parent="1" edge="1">
          <mxGeometry width="50" height="50" relative="1" as="geometry">
            <mxPoint x="264" y="-718.5" as="sourcePoint" />
            <mxPoint x="347" y="-718.5" as="targetPoint" />
          </mxGeometry>
        </mxCell>
        <mxCell id="bDWwW6XErZoGAaxyNKPI-108" value="" style="endArrow=oval;html=1;rounded=0;endFill=0;" parent="1" edge="1">
          <mxGeometry width="50" height="50" relative="1" as="geometry">
            <mxPoint x="264" y="-690" as="sourcePoint" />
            <mxPoint x="347" y="-690" as="targetPoint" />
          </mxGeometry>
        </mxCell>
        <mxCell id="bDWwW6XErZoGAaxyNKPI-109" value="" style="endArrow=oval;html=1;rounded=0;endFill=0;" parent="1" edge="1">
          <mxGeometry width="50" height="50" relative="1" as="geometry">
            <mxPoint x="264" y="-660" as="sourcePoint" />
            <mxPoint x="347" y="-660" as="targetPoint" />
          </mxGeometry>
        </mxCell>
        <mxCell id="bDWwW6XErZoGAaxyNKPI-110" value="" style="endArrow=none;html=1;rounded=0;" parent="1" edge="1">
          <mxGeometry width="50" height="50" relative="1" as="geometry">
            <mxPoint x="264" y="-570" as="sourcePoint" />
            <mxPoint x="264" y="-750" as="targetPoint" />
          </mxGeometry>
        </mxCell>
        <mxCell id="bDWwW6XErZoGAaxyNKPI-111" value="" style="endArrow=oval;html=1;rounded=0;endFill=0;" parent="1" edge="1">
          <mxGeometry width="50" height="50" relative="1" as="geometry">
            <mxPoint x="264" y="-630" as="sourcePoint" />
            <mxPoint x="347" y="-630" as="targetPoint" />
          </mxGeometry>
        </mxCell>
        <mxCell id="bDWwW6XErZoGAaxyNKPI-113" value="rua" style="text;html=1;align=center;verticalAlign=middle;whiteSpace=wrap;rounded=0;" parent="1" vertex="1">
          <mxGeometry x="320" y="-760" width="150" height="30" as="geometry" />
        </mxCell>
        <mxCell id="bDWwW6XErZoGAaxyNKPI-114" value="numero" style="text;html=1;align=center;verticalAlign=middle;whiteSpace=wrap;rounded=0;" parent="1" vertex="1">
          <mxGeometry x="341.75" y="-730" width="126.5" height="30" as="geometry" />
        </mxCell>
        <mxCell id="bDWwW6XErZoGAaxyNKPI-115" value="complemento" style="text;html=1;align=center;verticalAlign=middle;whiteSpace=wrap;rounded=0;" parent="1" vertex="1">
          <mxGeometry x="372.25" y="-700" width="96" height="30" as="geometry" />
        </mxCell>
        <mxCell id="bDWwW6XErZoGAaxyNKPI-116" value="bairro" style="text;html=1;align=center;verticalAlign=middle;whiteSpace=wrap;rounded=0;" parent="1" vertex="1">
          <mxGeometry x="355" y="-670" width="100" height="30" as="geometry" />
        </mxCell>
        <mxCell id="bDWwW6XErZoGAaxyNKPI-117" value="CEP" style="text;html=1;align=center;verticalAlign=middle;whiteSpace=wrap;rounded=0;" parent="1" vertex="1">
          <mxGeometry x="355" y="-640" width="100" height="30" as="geometry" />
        </mxCell>
        <mxCell id="bDWwW6XErZoGAaxyNKPI-131" value="cidade" style="text;html=1;align=center;verticalAlign=middle;whiteSpace=wrap;rounded=0;" parent="1" vertex="1">
          <mxGeometry x="359" y="-610" width="96" height="30" as="geometry" />
        </mxCell>
        <mxCell id="bDWwW6XErZoGAaxyNKPI-133" value="estado" style="text;html=1;align=center;verticalAlign=middle;whiteSpace=wrap;rounded=0;" parent="1" vertex="1">
          <mxGeometry x="359" y="-580" width="96" height="30" as="geometry" />
        </mxCell>
        <mxCell id="bDWwW6XErZoGAaxyNKPI-134" value="" style="endArrow=oval;html=1;rounded=0;endFill=0;" parent="1" edge="1">
          <mxGeometry width="50" height="50" relative="1" as="geometry">
            <mxPoint x="264" y="-600" as="sourcePoint" />
            <mxPoint x="347" y="-600" as="targetPoint" />
          </mxGeometry>
        </mxCell>
        <mxCell id="bDWwW6XErZoGAaxyNKPI-135" value="" style="endArrow=oval;html=1;rounded=0;endFill=0;" parent="1" edge="1">
          <mxGeometry width="50" height="50" relative="1" as="geometry">
            <mxPoint x="264" y="-570" as="sourcePoint" />
            <mxPoint x="347" y="-570" as="targetPoint" />
          </mxGeometry>
        </mxCell>
        <mxCell id="bDWwW6XErZoGAaxyNKPI-147" value="" style="endArrow=classic;startArrow=classic;html=1;rounded=0;" parent="1" edge="1">
          <mxGeometry width="50" height="50" relative="1" as="geometry">
            <mxPoint x="148" y="-580" as="sourcePoint" />
            <mxPoint x="258" y="-750" as="targetPoint" />
          </mxGeometry>
        </mxCell>
        <mxCell id="bDWwW6XErZoGAaxyNKPI-148" value="" style="endArrow=classic;html=1;rounded=0;" parent="1" edge="1">
          <mxGeometry width="50" height="50" relative="1" as="geometry">
            <mxPoint x="194" y="-650" as="sourcePoint" />
            <mxPoint x="268" y="-720" as="targetPoint" />
          </mxGeometry>
        </mxCell>
        <mxCell id="bDWwW6XErZoGAaxyNKPI-149" value="" style="endArrow=classic;html=1;rounded=0;" parent="1" edge="1">
          <mxGeometry width="50" height="50" relative="1" as="geometry">
            <mxPoint x="174.5" y="-620" as="sourcePoint" />
            <mxPoint x="258" y="-690" as="targetPoint" />
          </mxGeometry>
        </mxCell>
        <mxCell id="bDWwW6XErZoGAaxyNKPI-151" value="" style="endArrow=classic;html=1;rounded=0;" parent="1" edge="1">
          <mxGeometry width="50" height="50" relative="1" as="geometry">
            <mxPoint x="168" y="-610" as="sourcePoint" />
            <mxPoint x="258" y="-660" as="targetPoint" />
          </mxGeometry>
        </mxCell>
        <mxCell id="bDWwW6XErZoGAaxyNKPI-152" value="" style="endArrow=classic;html=1;rounded=0;exitX=0.915;exitY=-0.067;exitDx=0;exitDy=0;exitPerimeter=0;" parent="1" edge="1">
          <mxGeometry width="50" height="50" relative="1" as="geometry">
            <mxPoint x="163.99999999999977" y="-607.0100000000002" as="sourcePoint" />
            <mxPoint x="258" y="-630" as="targetPoint" />
          </mxGeometry>
        </mxCell>
        <mxCell id="bDWwW6XErZoGAaxyNKPI-153" value="" style="endArrow=classic;html=1;rounded=0;exitX=0.906;exitY=0.1;exitDx=0;exitDy=0;exitPerimeter=0;" parent="1" edge="1">
          <mxGeometry width="50" height="50" relative="1" as="geometry">
            <mxPoint x="161.01600000000008" y="-601" as="sourcePoint" />
            <mxPoint x="258" y="-600" as="targetPoint" />
          </mxGeometry>
        </mxCell>
        <mxCell id="bDWwW6XErZoGAaxyNKPI-154" value="" style="endArrow=classic;html=1;rounded=0;" parent="1" edge="1">
          <mxGeometry width="50" height="50" relative="1" as="geometry">
            <mxPoint x="158" y="-594" as="sourcePoint" />
            <mxPoint x="259.25" y="-575" as="targetPoint" />
          </mxGeometry>
        </mxCell>
        <mxCell id="SUFmGQfosRgxDtuJWRAY-2" value="trabalham" style="rhombus;whiteSpace=wrap;html=1;" vertex="1" parent="1">
          <mxGeometry x="8" y="-360" width="100" height="40" as="geometry" />
        </mxCell>
        <mxCell id="SUFmGQfosRgxDtuJWRAY-5" value="fazemparte" style="rhombus;whiteSpace=wrap;html=1;" vertex="1" parent="1">
          <mxGeometry x="910" y="-360" width="100" height="40" as="geometry" />
        </mxCell>
        <mxCell id="SUFmGQfosRgxDtuJWRAY-6" value="possui" style="rhombus;whiteSpace=wrap;html=1;" vertex="1" parent="1">
          <mxGeometry x="500" y="-550" width="100" height="40" as="geometry" />
        </mxCell>
        <mxCell id="SUFmGQfosRgxDtuJWRAY-7" value="realiza" style="rhombus;whiteSpace=wrap;html=1;" vertex="1" parent="1">
          <mxGeometry x="560" y="-190" width="100" height="40" as="geometry" />
        </mxCell>
        <mxCell id="SUFmGQfosRgxDtuJWRAY-8" value="podefazer" style="rhombus;whiteSpace=wrap;html=1;" vertex="1" parent="1">
          <mxGeometry x="910" y="40" width="100" height="40" as="geometry" />
        </mxCell>
        <mxCell id="SUFmGQfosRgxDtuJWRAY-9" value="gera" style="rhombus;whiteSpace=wrap;html=1;" vertex="1" parent="1">
          <mxGeometry x="1181.25" y="-190" width="100" height="40" as="geometry" />
        </mxCell>
        <mxCell id="SUFmGQfosRgxDtuJWRAY-11" value="" style="endArrow=none;html=1;rounded=0;entryX=0;entryY=0.5;entryDx=0;entryDy=0;exitX=1;exitY=0.5;exitDx=0;exitDy=0;" edge="1" parent="1" source="bDWwW6XErZoGAaxyNKPI-17" target="SUFmGQfosRgxDtuJWRAY-6">
          <mxGeometry width="50" height="50" relative="1" as="geometry">
            <mxPoint x="200" y="-520" as="sourcePoint" />
            <mxPoint x="250" y="-570" as="targetPoint" />
          </mxGeometry>
        </mxCell>
        <mxCell id="SUFmGQfosRgxDtuJWRAY-12" value="" style="endArrow=none;html=1;rounded=0;entryX=0;entryY=0.25;entryDx=0;entryDy=0;exitX=1;exitY=0.5;exitDx=0;exitDy=0;" edge="1" parent="1" source="SUFmGQfosRgxDtuJWRAY-6" target="bDWwW6XErZoGAaxyNKPI-45">
          <mxGeometry width="50" height="50" relative="1" as="geometry">
            <mxPoint x="200" y="-520" as="sourcePoint" />
            <mxPoint x="250" y="-570" as="targetPoint" />
          </mxGeometry>
        </mxCell>
        <mxCell id="SUFmGQfosRgxDtuJWRAY-13" value="" style="endArrow=none;html=1;rounded=0;entryX=0.5;entryY=1;entryDx=0;entryDy=0;exitX=0.5;exitY=0;exitDx=0;exitDy=0;" edge="1" parent="1" source="SUFmGQfosRgxDtuJWRAY-2" target="bDWwW6XErZoGAaxyNKPI-17">
          <mxGeometry width="50" height="50" relative="1" as="geometry">
            <mxPoint x="410" y="-250" as="sourcePoint" />
            <mxPoint x="460" y="-300" as="targetPoint" />
          </mxGeometry>
        </mxCell>
        <mxCell id="SUFmGQfosRgxDtuJWRAY-14" value="" style="endArrow=none;html=1;rounded=0;exitX=0.5;exitY=1;exitDx=0;exitDy=0;entryX=0.5;entryY=0;entryDx=0;entryDy=0;" edge="1" parent="1" source="SUFmGQfosRgxDtuJWRAY-2" target="21IDbUfAC1Eb4WapRIbQ-1">
          <mxGeometry width="50" height="50" relative="1" as="geometry">
            <mxPoint x="410" y="-250" as="sourcePoint" />
            <mxPoint x="460" y="-300" as="targetPoint" />
          </mxGeometry>
        </mxCell>
        <mxCell id="SUFmGQfosRgxDtuJWRAY-15" value="" style="endArrow=none;html=1;rounded=0;entryX=0.5;entryY=1;entryDx=0;entryDy=0;exitX=0.5;exitY=0;exitDx=0;exitDy=0;" edge="1" parent="1" source="SUFmGQfosRgxDtuJWRAY-5" target="bDWwW6XErZoGAaxyNKPI-45">
          <mxGeometry width="50" height="50" relative="1" as="geometry">
            <mxPoint x="410" y="-250" as="sourcePoint" />
            <mxPoint x="460" y="-300" as="targetPoint" />
          </mxGeometry>
        </mxCell>
        <mxCell id="SUFmGQfosRgxDtuJWRAY-16" value="" style="endArrow=none;html=1;rounded=0;entryX=0.5;entryY=1;entryDx=0;entryDy=0;exitX=0.35;exitY=-0.05;exitDx=0;exitDy=0;exitPerimeter=0;" edge="1" parent="1" source="bDWwW6XErZoGAaxyNKPI-74" target="SUFmGQfosRgxDtuJWRAY-5">
          <mxGeometry width="50" height="50" relative="1" as="geometry">
            <mxPoint x="410" y="-250" as="sourcePoint" />
            <mxPoint x="460" y="-300" as="targetPoint" />
          </mxGeometry>
        </mxCell>
        <mxCell id="SUFmGQfosRgxDtuJWRAY-17" value="" style="endArrow=none;html=1;rounded=0;exitX=1;exitY=0.5;exitDx=0;exitDy=0;entryX=0;entryY=0.5;entryDx=0;entryDy=0;" edge="1" parent="1" source="21IDbUfAC1Eb4WapRIbQ-1" target="SUFmGQfosRgxDtuJWRAY-7">
          <mxGeometry width="50" height="50" relative="1" as="geometry">
            <mxPoint x="410" y="-250" as="sourcePoint" />
            <mxPoint x="460" y="-300" as="targetPoint" />
          </mxGeometry>
        </mxCell>
        <mxCell id="SUFmGQfosRgxDtuJWRAY-18" value="" style="endArrow=none;html=1;rounded=0;entryX=0;entryY=0.5;entryDx=0;entryDy=0;exitX=1;exitY=0.5;exitDx=0;exitDy=0;" edge="1" parent="1" source="SUFmGQfosRgxDtuJWRAY-7" target="bDWwW6XErZoGAaxyNKPI-74">
          <mxGeometry width="50" height="50" relative="1" as="geometry">
            <mxPoint x="580" y="-50" as="sourcePoint" />
            <mxPoint x="630" y="-100" as="targetPoint" />
          </mxGeometry>
        </mxCell>
        <mxCell id="SUFmGQfosRgxDtuJWRAY-19" value="" style="endArrow=none;html=1;rounded=0;entryX=0;entryY=0.5;entryDx=0;entryDy=0;exitX=1;exitY=0.5;exitDx=0;exitDy=0;" edge="1" parent="1" source="SUFmGQfosRgxDtuJWRAY-9" target="bDWwW6XErZoGAaxyNKPI-90">
          <mxGeometry width="50" height="50" relative="1" as="geometry">
            <mxPoint x="1060" y="150" as="sourcePoint" />
            <mxPoint x="1110" y="100" as="targetPoint" />
          </mxGeometry>
        </mxCell>
        <mxCell id="SUFmGQfosRgxDtuJWRAY-20" value="" style="endArrow=none;html=1;rounded=0;entryX=0;entryY=0.5;entryDx=0;entryDy=0;exitX=1;exitY=0.5;exitDx=0;exitDy=0;" edge="1" parent="1" source="bDWwW6XErZoGAaxyNKPI-74" target="SUFmGQfosRgxDtuJWRAY-9">
          <mxGeometry width="50" height="50" relative="1" as="geometry">
            <mxPoint x="1060" y="150" as="sourcePoint" />
            <mxPoint x="1110" y="100" as="targetPoint" />
          </mxGeometry>
        </mxCell>
        <mxCell id="SUFmGQfosRgxDtuJWRAY-21" value="" style="endArrow=none;html=1;rounded=0;exitX=0.5;exitY=0;exitDx=0;exitDy=0;entryX=0.367;entryY=1;entryDx=0;entryDy=0;entryPerimeter=0;" edge="1" parent="1" source="SUFmGQfosRgxDtuJWRAY-8" target="bDWwW6XErZoGAaxyNKPI-74">
          <mxGeometry width="50" height="50" relative="1" as="geometry">
            <mxPoint x="1060" y="-50" as="sourcePoint" />
            <mxPoint x="1110" y="-100" as="targetPoint" />
          </mxGeometry>
        </mxCell>
        <mxCell id="SUFmGQfosRgxDtuJWRAY-22" value="" style="endArrow=none;html=1;rounded=0;exitX=0.342;exitY=0.025;exitDx=0;exitDy=0;exitPerimeter=0;entryX=0.5;entryY=1;entryDx=0;entryDy=0;" edge="1" parent="1" source="bDWwW6XErZoGAaxyNKPI-60" target="SUFmGQfosRgxDtuJWRAY-8">
          <mxGeometry width="50" height="50" relative="1" as="geometry">
            <mxPoint x="1060" y="-50" as="sourcePoint" />
            <mxPoint x="1110" y="-100" as="targetPoint" />
          </mxGeometry>
        </mxCell>
        <mxCell id="SUFmGQfosRgxDtuJWRAY-23" value="(1,1)" style="text;html=1;align=left;verticalAlign=middle;whiteSpace=wrap;rounded=0;" vertex="1" parent="1">
          <mxGeometry x="118" y="-560" width="60" height="30" as="geometry" />
        </mxCell>
        <mxCell id="SUFmGQfosRgxDtuJWRAY-24" value="(1,n)" style="text;html=1;align=right;verticalAlign=middle;whiteSpace=wrap;rounded=0;" vertex="1" parent="1">
          <mxGeometry x="840" y="-560" width="60" height="30" as="geometry" />
        </mxCell>
        <mxCell id="SUFmGQfosRgxDtuJWRAY-25" value="(1,n)" style="text;html=1;align=left;verticalAlign=middle;whiteSpace=wrap;rounded=0;" vertex="1" parent="1">
          <mxGeometry x="58" y="-220" width="60" height="30" as="geometry" />
        </mxCell>
        <mxCell id="SUFmGQfosRgxDtuJWRAY-26" value="(1,1)" style="text;html=1;align=left;verticalAlign=middle;whiteSpace=wrap;rounded=0;" vertex="1" parent="1">
          <mxGeometry x="60" y="-510" width="60" height="30" as="geometry" />
        </mxCell>
        <mxCell id="SUFmGQfosRgxDtuJWRAY-27" value="(1,1)" style="text;html=1;align=left;verticalAlign=middle;whiteSpace=wrap;rounded=0;" vertex="1" parent="1">
          <mxGeometry x="120" y="-200" width="60" height="30" as="geometry" />
        </mxCell>
        <mxCell id="SUFmGQfosRgxDtuJWRAY-28" value="(1,n)" style="text;html=1;align=right;verticalAlign=middle;whiteSpace=wrap;rounded=0;" vertex="1" parent="1">
          <mxGeometry x="858" y="-190" width="60" height="30" as="geometry" />
        </mxCell>
        <mxCell id="SUFmGQfosRgxDtuJWRAY-29" value="(1,n)" style="text;html=1;align=left;verticalAlign=middle;whiteSpace=wrap;rounded=0;" vertex="1" parent="1">
          <mxGeometry x="960" y="-500" width="60" height="30" as="geometry" />
        </mxCell>
        <mxCell id="SUFmGQfosRgxDtuJWRAY-30" value="(1,n)" style="text;html=1;align=left;verticalAlign=middle;whiteSpace=wrap;rounded=0;" vertex="1" parent="1">
          <mxGeometry x="960" y="-220" width="60" height="30" as="geometry" />
        </mxCell>
        <mxCell id="SUFmGQfosRgxDtuJWRAY-31" value="(1,1)" style="text;html=1;align=left;verticalAlign=middle;whiteSpace=wrap;rounded=0;" vertex="1" parent="1">
          <mxGeometry x="960" y="200" width="60" height="30" as="geometry" />
        </mxCell>
        <mxCell id="SUFmGQfosRgxDtuJWRAY-32" value="(1,n)" style="text;html=1;align=left;verticalAlign=middle;whiteSpace=wrap;rounded=0;" vertex="1" parent="1">
          <mxGeometry x="960" y="-150" width="60" height="30" as="geometry" />
        </mxCell>
        <mxCell id="SUFmGQfosRgxDtuJWRAY-33" value="(1,1)" style="text;html=1;align=left;verticalAlign=middle;whiteSpace=wrap;rounded=0;" vertex="1" parent="1">
          <mxGeometry x="1038" y="-200" width="60" height="30" as="geometry" />
        </mxCell>
        <mxCell id="SUFmGQfosRgxDtuJWRAY-34" value="(1,1)" style="text;html=1;align=right;verticalAlign=middle;whiteSpace=wrap;rounded=0;" vertex="1" parent="1">
          <mxGeometry x="1350" y="-190" width="60" height="30" as="geometry" />
        </mxCell>
        <mxCell id="SUFmGQfosRgxDtuJWRAY-35" value="idHotel (FK)" style="text;html=1;align=center;verticalAlign=middle;whiteSpace=wrap;rounded=0;" vertex="1" parent="1">
          <mxGeometry x="988" y="-600" width="100" height="30" as="geometry" />
        </mxCell>
        <mxCell id="SUFmGQfosRgxDtuJWRAY-36" value="" style="endArrow=oval;html=1;rounded=0;endFill=0;" edge="1" parent="1">
          <mxGeometry width="50" height="50" relative="1" as="geometry">
            <mxPoint x="900" y="-585.5" as="sourcePoint" />
            <mxPoint x="983" y="-585.5" as="targetPoint" />
          </mxGeometry>
        </mxCell>
        <mxCell id="SUFmGQfosRgxDtuJWRAY-37" value="idHotel (FK)" style="text;html=1;align=center;verticalAlign=middle;whiteSpace=wrap;rounded=0;" vertex="1" parent="1">
          <mxGeometry x="82" y="50" width="90" height="20" as="geometry" />
        </mxCell>
        <mxCell id="SUFmGQfosRgxDtuJWRAY-38" value="" style="endArrow=oval;html=1;rounded=0;endFill=0;" edge="1" parent="1">
          <mxGeometry width="50" height="50" relative="1" as="geometry">
            <mxPoint x="-2" y="59" as="sourcePoint" />
            <mxPoint x="81" y="59" as="targetPoint" />
            <Array as="points">
              <mxPoint x="50" y="59" />
            </Array>
          </mxGeometry>
        </mxCell>
        <mxCell id="SUFmGQfosRgxDtuJWRAY-39" value="cpfFuncionario (FK)" style="text;html=1;align=center;verticalAlign=middle;whiteSpace=wrap;rounded=0;" vertex="1" parent="1">
          <mxGeometry x="1120.25" y="-15" width="135.5" height="30" as="geometry" />
        </mxCell>
        <mxCell id="SUFmGQfosRgxDtuJWRAY-40" value="" style="endArrow=oval;html=1;rounded=0;endFill=0;" edge="1" parent="1">
          <mxGeometry width="50" height="50" relative="1" as="geometry">
            <mxPoint x="1038" as="sourcePoint" />
            <mxPoint x="1121" as="targetPoint" />
          </mxGeometry>
        </mxCell>
        <mxCell id="SUFmGQfosRgxDtuJWRAY-41" value="cpfHospede (FK)" style="text;html=1;align=center;verticalAlign=middle;whiteSpace=wrap;rounded=0;" vertex="1" parent="1">
          <mxGeometry x="1114.5" y="15" width="135.5" height="30" as="geometry" />
        </mxCell>
        <mxCell id="SUFmGQfosRgxDtuJWRAY-42" value="" style="endArrow=oval;html=1;rounded=0;endFill=0;" edge="1" parent="1">
          <mxGeometry width="50" height="50" relative="1" as="geometry">
            <mxPoint x="1038" y="30" as="sourcePoint" />
            <mxPoint x="1121" y="30" as="targetPoint" />
          </mxGeometry>
        </mxCell>
        <mxCell id="SUFmGQfosRgxDtuJWRAY-43" value="idReserva (FK)" style="text;html=1;align=left;verticalAlign=middle;whiteSpace=wrap;rounded=0;" vertex="1" parent="1">
          <mxGeometry x="1510" y="40" width="110" height="30" as="geometry" />
        </mxCell>
        <mxCell id="SUFmGQfosRgxDtuJWRAY-44" value="" style="endArrow=oval;html=1;rounded=0;endFill=0;" edge="1" parent="1">
          <mxGeometry width="50" height="50" relative="1" as="geometry">
            <mxPoint x="1410" y="50" as="sourcePoint" />
            <mxPoint x="1493" y="50" as="targetPoint" />
          </mxGeometry>
        </mxCell>
        <mxCell id="SUFmGQfosRgxDtuJWRAY-45" value="idReserva (FK)&lt;div&gt;&lt;br&gt;&lt;/div&gt;" style="text;html=1;align=left;verticalAlign=middle;whiteSpace=wrap;rounded=0;" vertex="1" parent="1">
          <mxGeometry x="610" y="-370" width="150" height="30" as="geometry" />
        </mxCell>
        <mxCell id="SUFmGQfosRgxDtuJWRAY-46" value="idQuarto (FK)" style="text;html=1;align=left;verticalAlign=middle;whiteSpace=wrap;rounded=0;" vertex="1" parent="1">
          <mxGeometry x="620" y="-340" width="100" height="30" as="geometry" />
        </mxCell>
        <mxCell id="SUFmGQfosRgxDtuJWRAY-51" value="ReservaQuarto" style="text;html=1;align=left;verticalAlign=middle;whiteSpace=wrap;rounded=0;" vertex="1" parent="1">
          <mxGeometry x="590" y="-410" width="110" height="30" as="geometry" />
        </mxCell>
        <mxCell id="SUFmGQfosRgxDtuJWRAY-55" value="ReservaQuarto" style="rounded=0;whiteSpace=wrap;html=1;" vertex="1" parent="1">
          <mxGeometry x="580" y="-410" width="120" height="30" as="geometry" />
        </mxCell>
        <mxCell id="SUFmGQfosRgxDtuJWRAY-59" value="" style="endArrow=none;html=1;rounded=0;entryX=1;entryY=1;entryDx=0;entryDy=0;exitX=0;exitY=0;exitDx=0;exitDy=0;" edge="1" parent="1" source="bDWwW6XErZoGAaxyNKPI-74" target="SUFmGQfosRgxDtuJWRAY-51">
          <mxGeometry width="50" height="50" relative="1" as="geometry">
            <mxPoint x="860" y="-280" as="sourcePoint" />
            <mxPoint x="910" y="-330" as="targetPoint" />
          </mxGeometry>
        </mxCell>
        <mxCell id="SUFmGQfosRgxDtuJWRAY-60" value="" style="endArrow=none;html=1;rounded=0;exitX=1;exitY=0;exitDx=0;exitDy=0;entryX=0;entryY=1;entryDx=0;entryDy=0;" edge="1" parent="1" source="SUFmGQfosRgxDtuJWRAY-51" target="bDWwW6XErZoGAaxyNKPI-45">
          <mxGeometry width="50" height="50" relative="1" as="geometry">
            <mxPoint x="860" y="-280" as="sourcePoint" />
            <mxPoint x="910" y="-330" as="targetPoint" />
          </mxGeometry>
        </mxCell>
        <mxCell id="SUFmGQfosRgxDtuJWRAY-61" value="" style="endArrow=none;html=1;rounded=0;exitX=0;exitY=1;exitDx=0;exitDy=0;" edge="1" parent="1" source="SUFmGQfosRgxDtuJWRAY-55">
          <mxGeometry width="50" height="50" relative="1" as="geometry">
            <mxPoint x="860" y="-280" as="sourcePoint" />
            <mxPoint x="580" y="-330" as="targetPoint" />
          </mxGeometry>
        </mxCell>
        <mxCell id="SUFmGQfosRgxDtuJWRAY-62" value="" style="endArrow=oval;html=1;rounded=0;endFill=0;" edge="1" parent="1">
          <mxGeometry width="50" height="50" relative="1" as="geometry">
            <mxPoint x="580" y="-360" as="sourcePoint" />
            <mxPoint x="600" y="-360" as="targetPoint" />
          </mxGeometry>
        </mxCell>
        <mxCell id="SUFmGQfosRgxDtuJWRAY-63" value="" style="endArrow=oval;html=1;rounded=0;endFill=0;" edge="1" parent="1">
          <mxGeometry width="50" height="50" relative="1" as="geometry">
            <mxPoint x="580" y="-330" as="sourcePoint" />
            <mxPoint x="610" y="-330" as="targetPoint" />
          </mxGeometry>
        </mxCell>
        <mxCell id="SUFmGQfosRgxDtuJWRAY-64" value="" style="endArrow=oval;html=1;rounded=0;entryX=0.2;entryY=0.333;entryDx=0;entryDy=0;entryPerimeter=0;endFill=0;" edge="1" parent="1">
          <mxGeometry width="50" height="50" relative="1" as="geometry">
            <mxPoint x="265" y="-749.99" as="sourcePoint" />
            <mxPoint x="355" y="-750.0000000000002" as="targetPoint" />
            <Array as="points">
              <mxPoint x="325" y="-749.99" />
            </Array>
          </mxGeometry>
        </mxCell>
      </root>
    </mxGraphModel>
  </diagram>
</mxfile>
